<svg xmlns="http://www.w3.org/2000/svg" width="1000" height="300"><rect width="1000" height="300" x="0" y="0" fill="#FFFFFF" id="background"/><g id="viz" transform="translate(0,0)"><g id="cells"><path d="M687.473342790963,47.31191603461163L637.9927887807848,0L441.7959218495662,0L399.42507511679594,45.32346753480351L435.4941442394051,300L608.5897303670646,300L686.7882840652381,232.7596992560202z" fill="#dd5129" stroke="#FFFFFF" stroke-width="2" id="HFMD"/><path d="M435.4941442394051,300L399.42507511679594,45.32346753480351L396.63923507059656,43.90432823499662L366.2236779094735,34.350942687984436L233.450702601343,67.41890974467208L229.8953198147172,229.90936586081926L263.66228273469204,300z" fill="#dd5129" stroke="#FFFFFF" stroke-width="2" id="Infectious diarrhea"/><path d="M233.45070260134304,67.41890974467208L366.2236779094735,34.350942687984436L363.2964247433388,0L234.92586635513265,0z" fill="#dd5129" stroke="#FFFFFF" stroke-width="2" id="Dysentery"/><path d="M686.7882840652381,232.7596992560202L608.5897303670646,300L686.539893095312,300z" fill="#dd5129" stroke="#FFFFFF" stroke-width="2" id="AHC"/><path d="M687.648116737285,0L637.9927887807848,0L687.473342790963,47.311916034611606z" fill="#dd5129" stroke="#FFFFFF" stroke-width="2" id="Hepatitis E"/><path d="M363.2964247433388,0L366.2236779094735,34.350942687984436L396.63923507059656,43.90432823499662L393.37923920936447,0z" fill="#dd5129" stroke="#FFFFFF" stroke-width="2" id="Hepatitis A"/><path d="M441.7959218495662,0L393.37923920936447,0L396.63923507059656,43.90432823499662L399.42507511679594,45.32346753480351z" fill="#dd5129" stroke="#FFFFFF" stroke-width="2" id="Enteric fever"/><path d="M825.5185890269056,300L917.4360163426311,200.25017062013367L922.7435744180909,186.24275997273634L841.5223547788078,1.9895196601282805e-13L687.648116737285,2.5818846439140866e-13L686.7188246378751,251.5626081813535L786.7225991947307,300z" fill="#0f7ba2" stroke="#FFFFFF" stroke-width="2" id="Hepatitis B"/><path d="M841.5223547788078,1.9895196601282805e-13L922.7435744180909,186.24275997273634L1000,167.59908979734732L1000,1.4210854715202004e-13z" fill="#0f7ba2" stroke="#FFFFFF" stroke-width="2" id="Syphilis"/><path d="M1000,300.00000000000006L1000,279.65860789436476L917.4360163426311,200.25017062013367L825.5185890269056,300z" fill="#0f7ba2" stroke="#FFFFFF" stroke-width="2" id="Hepatitis C"/><path d="M917.4360163426311,200.25017062013367L1000,279.65860789436476L1000,167.59908979734732L922.7435744180909,186.24275997273634z" fill="#0f7ba2" stroke="#FFFFFF" stroke-width="2" id="Gonorrhea"/><path d="M786.7225991947308,300L686.7188246378751,251.5626081813535L686.539893095312,300z" fill="#0f7ba2" stroke="#FFFFFF" stroke-width="2" id="AIDS"/><path d="M42.18144423109814,44.138727211418484L3.552713678800501e-14,75.97099658456166L-1.7445275090794624e-14,300L138.5519620079977,300L229.8953198147172,229.90936586081926L232.56459632408325,107.9163250162263L72.06273395896383,32.09704474047642L59.05497938963834,35.524483331324866z" fill="#43b284" stroke="#FFFFFF" stroke-width="2" id="Tuberculosis"/><path d="M234.9258663551326,-1.4210854715202004e-14L78.97867973685157,0L72.06273395896383,32.09704474047642L232.56459632408323,107.91632501622628z" fill="#43b284" stroke="#FFFFFF" stroke-width="2" id="Mumps"/><path d="M5.684341886080802e-14,3.3643773908995745e-15L4.973799150320701e-14,23.771357117456354L42.18144423109814,44.138727211418484L59.05497938963834,35.524483331324866L54.74308521907286,7.105427357601002e-15z" fill="#43b284" stroke="#FFFFFF" stroke-width="2" id="Scarlet fever"/><path d="M5.684341886080802e-14,75.97099658456165L42.18144423109814,44.138727211418484L5.684341886080802e-14,23.771357117456354z" fill="#43b284" stroke="#FFFFFF" stroke-width="2" id="Rubella"/><path d="M78.97867973685157,0L54.74308521907285,0L59.05497938963834,35.524483331324866L72.06273395896383,32.09704474047642z" fill="#43b284" stroke="#FFFFFF" stroke-width="2" id="Pertussis"/><path d="M199.91250240294792,252.91612558731117L199.22374849877912,282.2585478180268L210.6586072597476,300L263.66228273469204,300L235.50517248446135,241.55382828942433L214.68706636577744,241.579137522171z" fill="#fab255" stroke="#FFFFFF" stroke-width="2" id="Brucellosis"/><path d="M170.68028707102542,275.34692470729715L175.02393717244473,281.3851466197755L187.92192418022793,286.9591616722703L199.22374849877912,282.2585478180268L199.91250240294792,252.91612558731117z" fill="#fab255" stroke="#FFFFFF" stroke-width="2" id="HFRS"/><path d="M172.31679701295985,300L175.02393717244473,281.3851466197755L170.68028707102542,275.34692470729715L151.50473131961283,290.0609323249244L155.60524090262538,300z" fill="#fab255" stroke="#FFFFFF" stroke-width="2" id="Dengue fever"/><path d="M187.92192418022793,286.9591616722703L187.36543552841817,300L210.6586072597476,300L199.22374849877912,282.2585478180268z" fill="#fab255" stroke="#FFFFFF" stroke-width="2" id="Malaria"/><path d="M175.02393717244473,281.3851466197755L172.31679701295982,300L187.36543552841817,300L187.92192418022793,286.9591616722703z" fill="#fab255" stroke="#FFFFFF" stroke-width="2" id="Echinococcosis"/><path d="M214.68706636577744,241.579137522171L235.50517248446138,241.55382828942433L229.89531981471717,229.90936586081926z" fill="#fab255" stroke="#FFFFFF" stroke-width="2" id="Typhus"/><path d="M138.55196200799764,300L155.60524090262538,300L151.50473131961283,290.0609323249244z" fill="#fab255" stroke="#FFFFFF" stroke-width="2" id="JE"/><path d="M234.92586635513265,0L229.89531981471717,229.90936586081926L263.66228273469204,300L686.539893095312,300L687.648116737285,0z" fill="none" stroke="#FFFFFF" stroke-width="4" id="Intestinal infectious diseases"/><path d="M1000,1.3705037733422185e-13L687.648116737285,2.2737367544323206e-13L686.539893095312,300L1000,300z" fill="none" stroke="#FFFFFF" stroke-width="4" id="Blood borne and sexually transmitted diseases"/><path d="M234.92586635513263,0L5.684341886080802e-14,0L1.487348467931871e-14,300L138.55196200799767,300L229.89531981471717,229.90936586081926z" fill="none" stroke="#FFFFFF" stroke-width="4" id="Respiratory infectious diseases"/><path d="M263.66228273469204,300L229.89531981471717,229.90936586081926L138.55196200799762,300z" fill="none" stroke="#FFFFFF" stroke-width="4" id="Zoonotic infectious diseases"/><path d="M0,0L0,300L1000,300L1000,0z" fill="none" stroke="#FFFFFF" stroke-width="6"/></g><g id="labels"><text text-anchor="middle" dominant-baseline="text-before-edge" transform="translate(546.9930016572574,134.4538475837471)"><tspan x="3" y="0.2em" style="font-family: Arial, sans-serif; font-size: 10px; fill: black; font-weight: bold;">HFMD</tspan><tspan x="3" y="1.3em" style="font-family: Arial, sans-serif; font-size: 10px; fill: black; font-weight: normal;">27255346</tspan></text><text text-anchor="middle" dominant-baseline="text-before-edge" transform="translate(328.62218168635314,165.3810481532293)"><tspan x="3" y="0.2em" style="font-family: Arial, sans-serif; font-size: 10px; fill: black; font-weight: bold;">Infectious diarrhea</tspan><tspan x="3" y="1.3em" style="font-family: Arial, sans-serif; font-size: 10px; fill: black; font-weight: normal;">16206609</tspan></text><text text-anchor="middle" dominant-baseline="text-before-edge" transform="translate(291.3876894225413,15.878833109923512)"><tspan x="3" y="0.2em" style="font-family: Arial, sans-serif; font-size: 10px; fill: black; font-weight: bold;">Dysentery</tspan><tspan x="3" y="1.3em" style="font-family: Arial, sans-serif; font-size: 10px; fill: black; font-weight: normal;">2376937</tspan></text><text text-anchor="middle" dominant-baseline="text-before-edge" transform="translate(660.653827597,266.6381492939603)"><tspan x="3" y="0.2em" style="font-family: Arial, sans-serif; font-size: 10px; fill: black; font-weight: bold;">AHC</tspan><tspan x="3" y="1.3em" style="font-family: Arial, sans-serif; font-size: 10px; fill: black; font-weight: normal;">939596</tspan></text><text text-anchor="middle" dominant-baseline="text-before-edge" transform="translate(671.1306384877566,4.626109485086422)"><tspan x="3" y="0.2em" style="font-family: Arial, sans-serif; font-size: 10px; fill: black; font-weight: bold;">Hepatitis E</tspan><tspan x="3" y="1.3em" style="font-family: Arial, sans-serif; font-size: 10px; fill: black; font-weight: normal;">428997</tspan></text><text text-anchor="middle" dominant-baseline="text-before-edge" transform="translate(377.895603706131,8.506966541879407)"><tspan x="3" y="0.2em" style="font-family: Arial, sans-serif; font-size: 10px; fill: black; font-weight: bold;">Hepatitis A</tspan><tspan x="3" y="1.3em" style="font-family: Arial, sans-serif; font-size: 10px; fill: black; font-weight: normal;">397864</tspan></text><text text-anchor="middle" dominant-baseline="text-before-edge" transform="translate(409.7401823817084,6.142434413534261)"><tspan x="3" y="0.2em" style="font-family: Arial, sans-serif; font-size: 10px; fill: black; font-weight: bold;">Enteric fever</tspan><tspan x="3" y="1.3em" style="font-family: Arial, sans-serif; font-size: 10px; fill: black; font-weight: normal;">184810</tspan></text><text text-anchor="middle" dominant-baseline="text-before-edge" transform="translate(788.7484025670925,134.4083592623607)"><tspan x="3" y="0.2em" style="font-family: Arial, sans-serif; font-size: 10px; fill: black; font-weight: bold;">Hepatitis B</tspan><tspan x="3" y="1.3em" style="font-family: Arial, sans-serif; font-size: 10px; fill: black; font-weight: normal;">19399557</tspan></text><text text-anchor="middle" dominant-baseline="text-before-edge" transform="translate(938.0593519929556,69.29325132665794)"><tspan x="3" y="0.2em" style="font-family: Arial, sans-serif; font-size: 10px; fill: black; font-weight: bold;">Syphilis</tspan><tspan x="3" y="1.3em" style="font-family: Arial, sans-serif; font-size: 10px; fill: black; font-weight: normal;">7423778</tspan></text><text text-anchor="middle" dominant-baseline="text-before-edge" transform="translate(920.1328862287893,255.4764733881355)"><tspan x="3" y="0.2em" style="font-family: Arial, sans-serif; font-size: 10px; fill: black; font-weight: bold;">Hepatitis C</tspan><tspan x="3" y="1.3em" style="font-family: Arial, sans-serif; font-size: 10px; fill: black; font-weight: normal;">3428095</tspan></text><text text-anchor="middle" dominant-baseline="text-before-edge" transform="translate(970.3814888184609,203.23108303129067)"><tspan x="3" y="0.2em" style="font-family: Arial, sans-serif; font-size: 10px; fill: black; font-weight: bold;">Gonorrhea</tspan><tspan x="3" y="1.3em" style="font-family: Arial, sans-serif; font-size: 10px; fill: black; font-weight: normal;">1811902</tspan></text><text text-anchor="middle" dominant-baseline="text-before-edge" transform="translate(721.7217113999193,272.7915764651007)"><tspan x="3" y="0.2em" style="font-family: Arial, sans-serif; font-size: 10px; fill: black; font-weight: bold;">AIDS</tspan><tspan x="3" y="1.3em" style="font-family: Arial, sans-serif; font-size: 10px; fill: black; font-weight: normal;">791685</tspan></text><text text-anchor="middle" dominant-baseline="text-before-edge" transform="translate(105.15338207487716,163.68750728249887)"><tspan x="3" y="0.2em" style="font-family: Arial, sans-serif; font-size: 10px; fill: black; font-weight: bold;">Tuberculosis</tspan><tspan x="3" y="1.3em" style="font-family: Arial, sans-serif; font-size: 10px; fill: black; font-weight: normal;">18355704</tspan></text><text text-anchor="middle" dominant-baseline="text-before-edge" transform="translate(169.21117187639894,28.083548437930226)"><tspan x="3" y="0.2em" style="font-family: Arial, sans-serif; font-size: 10px; fill: black; font-weight: bold;">Mumps</tspan><tspan x="3" y="1.3em" style="font-family: Arial, sans-serif; font-size: 10px; fill: black; font-weight: normal;">4004593</tspan></text><text text-anchor="middle" dominant-baseline="text-before-edge" transform="translate(26.570723837712066,9.760213712312847)"><tspan x="3" y="0.2em" style="font-family: Arial, sans-serif; font-size: 10px; fill: black; font-weight: bold;">Scarlet fever</tspan><tspan x="3" y="1.3em" style="font-family: Arial, sans-serif; font-size: 10px; fill: black; font-weight: normal;">731539</tspan></text><text text-anchor="middle" dominant-baseline="text-before-edge" transform="translate(11.908172779400402,40.126803846360204)"><tspan x="3" y="0.2em" style="font-family: Arial, sans-serif; font-size: 10px; fill: black; font-weight: bold;">Rubella</tspan><tspan x="3" y="1.3em" style="font-family: Arial, sans-serif; font-size: 10px; fill: black; font-weight: normal;">440925</tspan></text><text text-anchor="middle" dominant-baseline="text-before-edge" transform="translate(63.4163764095173,5.28795853401008)"><tspan x="3" y="0.2em" style="font-family: Arial, sans-serif; font-size: 10px; fill: black; font-weight: bold;">Pertussis</tspan><tspan x="3" y="1.3em" style="font-family: Arial, sans-serif; font-size: 10px; fill: black; font-weight: normal;">184439</tspan></text><text text-anchor="middle" dominant-baseline="text-before-edge" transform="translate(226.70049982681,262.74312249230314)"><tspan x="3" y="0.2em" style="font-family: Arial, sans-serif; font-size: 10px; fill: black; font-weight: bold;">Brucellosis</tspan><tspan x="3" y="1.3em" style="font-family: Arial, sans-serif; font-size: 10px; fill: black; font-weight: normal;">801582</tspan></text><text text-anchor="middle" dominant-baseline="text-before-edge" transform="translate(188.61303335879575,261.84909639508925)"><tspan x="3" y="0.2em" style="font-family: Arial, sans-serif; font-size: 10px; fill: black; font-weight: bold;">HFRS</tspan><tspan x="3" y="1.3em" style="font-family: Arial, sans-serif; font-size: 10px; fill: black; font-weight: normal;">162950</tspan></text><text text-anchor="middle" dominant-baseline="text-before-edge" transform="translate(164.83015708759626,278.95752573485123)"><tspan x="3" y="0.2em" style="font-family: Arial, sans-serif; font-size: 10px; fill: black; font-weight: bold;">Dengue fever</tspan><tspan x="3" y="1.3em" style="font-family: Arial, sans-serif; font-size: 10px; fill: black; font-weight: normal;">113875</tspan></text><text text-anchor="middle" dominant-baseline="text-before-edge" transform="translate(196.95794896068975,281.91302272688336)"><tspan x="3" y="0.2em" style="font-family: Arial, sans-serif; font-size: 10px; fill: black; font-weight: bold;">Malaria</tspan><tspan x="3" y="1.3em" style="font-family: Arial, sans-serif; font-size: 10px; fill: black; font-weight: normal;">83925</tspan></text><text text-anchor="middle" dominant-baseline="text-before-edge" transform="translate(180.25028915582266,281.2000606575709)"><tspan x="3" y="0.2em" style="font-family: Arial, sans-serif; font-size: 10px; fill: black; font-weight: bold;">Echinococcosis</tspan><tspan x="3" y="1.3em" style="font-family: Arial, sans-serif; font-size: 10px; fill: black; font-weight: normal;">66089</tspan></text><text text-anchor="middle" dominant-baseline="text-before-edge" transform="translate(226.65677067818118,226.77371694984734)"><tspan x="3" y="0.2em" style="font-family: Arial, sans-serif; font-size: 10px; fill: black; font-weight: bold;">Typhus</tspan><tspan x="3" y="1.3em" style="font-family: Arial, sans-serif; font-size: 10px; fill: black; font-weight: normal;">27128</tspan></text><text text-anchor="middle" dominant-baseline="text-before-edge" transform="translate(148.26768638742706,285.7906183391727)"><tspan x="3" y="0.2em" style="font-family: Arial, sans-serif; font-size: 10px; fill: black; font-weight: bold;">JE</tspan><tspan x="3" y="1.3em" style="font-family: Arial, sans-serif; font-size: 10px; fill: black; font-weight: normal;">24203</tspan></text></g></g></svg>