<svg xmlns="http://www.w3.org/2000/svg" width="1000" height="300"><rect width="1000" height="300" x="0" y="0" fill="#ffffff" id="background"/><g id="viz" transform="translate(0,0)"><g id="cells"><path d="M687.4804997939639,47.31090427659517L637.9991846950848,-2.842170943040401e-14L441.85125599572496,-1.1368683772161603e-13L399.4325745106665,45.344428257607404L435.5071033213781,300L608.5958620229658,299.9999999999999L686.7950126118661,232.75995427640544z" fill="#bc3c29" stroke="#ffffff" stroke-width="2" id="HFMD"/><path d="M435.5071033213781,299.99999999999994L399.4325745106665,45.344428257607404L396.7738070682341,43.98900393435351L366.17042392592816,34.36971361288594L233.45572273566694,67.45047673152399L229.89978710378395,229.8751505486596L263.6791220319193,300z" fill="#bc3c29" stroke="#ffffff" stroke-width="2" id="Infectious diarrhea"/><path d="M233.45572273566694,67.45047673152398L366.17042392592816,34.36971361288594L363.2526423457106,-1.5631940186722204e-13L234.93240449811367,-2.1221894158058445e-13z" fill="#bc3c29" stroke="#ffffff" stroke-width="2" id="Dysentery"/><path d="M686.7950126118661,232.7599542764054L608.5958620229658,299.9999999999999L686.5464689311773,299.9999999999999z" fill="#bc3c29" stroke="#ffffff" stroke-width="2" id="AHC"/><path d="M687.6553781147485,1.0619652458367158e-14L637.9991846950848,-1.4210854715202004e-14L687.4804997939639,47.31090427659518z" fill="#bc3c29" stroke="#ffffff" stroke-width="2" id="Hepatitis E"/><path d="M363.2526423457106,0L366.17042392592816,34.36971361288594L396.7738070682341,43.98900393435351L393.4420283301945,-1.4921397450962104e-13z" fill="#bc3c29" stroke="#ffffff" stroke-width="2" id="Hepatitis A"/><path d="M441.85125599572496,-1.2079226507921703e-13L393.4420283301945,-1.1368683772161603e-13L396.7738070682341,43.98900393435351L399.4325745106665,45.344428257607404z" fill="#bc3c29" stroke="#ffffff" stroke-width="2" id="Enteric fever"/><path d="M825.5192553311298,300L917.4386732854744,200.25117753759469L922.7458560656265,186.24554277779964L841.5220870149219,-1.9895196601282805e-13L687.6553781147485,-2.3449280935119064e-13L686.7255059303955,251.56402295047465L786.7312796204391,300z" fill="#0072b5" stroke="#ffffff" stroke-width="2" id="Hepatitis B"/><path d="M841.522087014922,-1.4210854715202004e-13L922.7458560656265,186.24554277779964L1000,167.6020528887035L999.9999999999999,-1.4210854715202004e-13z" fill="#0072b5" stroke="#ffffff" stroke-width="2" id="Syphilis"/><path d="M1000,300L1000,279.6636925680656L917.4386732854744,200.25117753759469L825.5192553311298,300z" fill="#0072b5" stroke="#ffffff" stroke-width="2" id="Hepatitis C"/><path d="M917.4386732854744,200.25117753759469L1000,279.6636925680656L1000,167.6020528887035L922.7458560656265,186.24554277779964z" fill="#0072b5" stroke="#ffffff" stroke-width="2" id="Gonorrhea"/><path d="M786.7312796204391,300L686.7255059303955,251.56402295047468L686.5464689311773,300z" fill="#0072b5" stroke="#ffffff" stroke-width="2" id="AIDS"/><path d="M42.15891952653644,44.14498784083395L2.1316282072803006e-14,75.96088481961448L9.091562069261664e-15,300L138.51370006967403,299.99999999999994L229.89978710378395,229.87515054865966L232.56952210489942,107.92951327492173L72.07948300771822,32.08884402981394L59.050451408702585,35.52129108411819z" fill="#e18727" stroke="#ffffff" stroke-width="2" id="Tuberculosis"/><path d="M234.93240449811364,-2.842170943040401e-14L78.99441437582415,5.684341886080802e-14L72.07948300771822,32.08884402981394L232.56952210489936,107.92951327492173z" fill="#e18727" stroke="#ffffff" stroke-width="2" id="Mumps"/><path d="M3.552713678800501e-14,0L2.842170943040401e-14,23.784834933193114L42.15891952653644,44.14498784083395L59.050451408702585,35.52129108411819L54.73916487421925,0z" fill="#e18727" stroke="#ffffff" stroke-width="2" id="Scarlet fever"/><path d="M2.842170943040401e-14,75.96088481961445L42.15891952653644,44.14498784083395L2.1316282072803006e-14,23.784834933193117z" fill="#e18727" stroke="#ffffff" stroke-width="2" id="Rubella"/><path d="M78.99441437582418,-7.105427357601002e-15L54.73916487421924,-2.842170943040401e-14L59.050451408702585,35.52129108411819L72.07948300771822,32.08884402981394z" fill="#e18727" stroke="#ffffff" stroke-width="2" id="Pertussis"/><path d="M199.8252777785713,252.9527382559251L199.15817504725422,282.15854126863434L210.70110389904167,299.99999999999994L263.6791220319193,299.9999999999999L235.52200382674081,241.54669772739868L214.70471423182823,241.53504574857473z" fill="#20854e" stroke="#ffffff" stroke-width="2" id="Brucellosis"/><path d="M170.6719052659799,275.32349429542217L174.87816541732923,281.1946621631474L187.9619262719389,286.8731627837576L199.15817504725422,282.15854126863434L199.8252777785713,252.9527382559251z" fill="#20854e" stroke="#ffffff" stroke-width="2" id="HFRS"/><path d="M172.20851801138463,299.99999999999994L174.87816541732923,281.1946621631474L170.6719052659799,275.32349429542217L151.25405356792484,290.2237266085347L155.32406498197938,300z" fill="#20854e" stroke="#ffffff" stroke-width="2" id="Dengue fever"/><path d="M187.9619262719389,286.8731627837576L187.3485053807199,299.99999999999994L210.70110389904167,299.99999999999994L199.15817504725422,282.15854126863434z" fill="#20854e" stroke="#ffffff" stroke-width="2" id="Malaria"/><path d="M174.87816541732923,281.1946621631474L172.20851801138463,300L187.3485053807199,299.99999999999994L187.9619262719389,286.8731627837576z" fill="#20854e" stroke="#ffffff" stroke-width="2" id="Echinococcosis"/><path d="M214.70471423182823,241.53504574857473L235.52200382674084,241.54669772739868L229.89978710378395,229.87515054865966z" fill="#20854e" stroke="#ffffff" stroke-width="2" id="Typhus"/><path d="M138.51370006967397,300L155.32406498197938,300L151.25405356792484,290.2237266085347z" fill="#20854e" stroke="#ffffff" stroke-width="2" id="JE"/><path d="M234.93240449811367,-2.2737367544323206e-13L229.89978710378395,229.87515054865966L263.6791220319193,300L686.5464689311773,299.9999999999999L687.6553781147485,0z" fill="none" stroke="#ffffff" stroke-width="4" id="Intestinal infectious diseases"/><path d="M999.9999999999999,-1.3705156447605868e-13L687.6553781147485,-2.2737367544323206e-13L686.5464689311773,300L1000,300z" fill="none" stroke="#ffffff" stroke-width="4" id="Blood borne and sexually transmitted diseases"/><path d="M234.93240449811367,0L2.842170943040401e-14,0L7.435337683168966e-15,300.00000000000006L138.513700069674,300L229.89978710378395,229.87515054865966z" fill="none" stroke="#ffffff" stroke-width="4" id="Respiratory infectious diseases"/><path d="M263.6791220319193,299.9999999999999L229.89978710378395,229.87515054865966L138.51370006967397,300z" fill="none" stroke="#ffffff" stroke-width="4" id="Zoonotic infectious diseases"/><path d="M0,0L0,300L1000,300L1000,0z" fill="none" stroke="#ffffff" stroke-width="6"/></g><g id="labels"><text text-anchor="middle" dominant-baseline="text-before-edge" transform="translate(547.0025641023766,134.355636612826)"><tspan x="3" y="0.2em" style="font-family: Arial, sans-serif; font-size: 10px; fill: black; font-weight: bold;">HFMD</tspan><tspan x="3" y="1.3em" style="font-family: Arial, sans-serif; font-size: 10px; fill: black; font-weight: normal;">27255336</tspan></text><text text-anchor="middle" dominant-baseline="text-before-edge" transform="translate(328.63088200847875,165.29018669252682)"><tspan x="3" y="0.2em" style="font-family: Arial, sans-serif; font-size: 10px; fill: black; font-weight: bold;">Infectious diarrhea</tspan><tspan x="3" y="1.3em" style="font-family: Arial, sans-serif; font-size: 10px; fill: black; font-weight: normal;">16205607</tspan></text><text text-anchor="middle" dominant-baseline="text-before-edge" transform="translate(291.3664002994138,15.791079392848495)"><tspan x="3" y="0.2em" style="font-family: Arial, sans-serif; font-size: 10px; fill: black; font-weight: bold;">Dysentery</tspan><tspan x="3" y="1.3em" style="font-family: Arial, sans-serif; font-size: 10px; fill: black; font-weight: normal;">2376947</tspan></text><text text-anchor="middle" dominant-baseline="text-before-edge" transform="translate(660.6605890884573,266.53819115866185)"><tspan x="3" y="0.2em" style="font-family: Arial, sans-serif; font-size: 10px; fill: black; font-weight: bold;">AHC</tspan><tspan x="3" y="1.3em" style="font-family: Arial, sans-serif; font-size: 10px; fill: black; font-weight: normal;">939592</tspan></text><text text-anchor="middle" dominant-baseline="text-before-edge" transform="translate(671.1370634279134,4.526406550801312)"><tspan x="3" y="0.2em" style="font-family: Arial, sans-serif; font-size: 10px; fill: black; font-weight: bold;">Hepatitis E</tspan><tspan x="3" y="1.3em" style="font-family: Arial, sans-serif; font-size: 10px; fill: black; font-weight: normal;">428997</tspan></text><text text-anchor="middle" dominant-baseline="text-before-edge" transform="translate(377.9315130060641,8.44222294935972)"><tspan x="3" y="0.2em" style="font-family: Arial, sans-serif; font-size: 10px; fill: black; font-weight: bold;">Hepatitis A</tspan><tspan x="3" y="1.3em" style="font-family: Arial, sans-serif; font-size: 10px; fill: black; font-weight: normal;">400491</tspan></text><text text-anchor="middle" dominant-baseline="text-before-edge" transform="translate(409.8224565148957,6.026765493734835)"><tspan x="3" y="0.2em" style="font-family: Arial, sans-serif; font-size: 10px; fill: black; font-weight: bold;">Enteric fever</tspan><tspan x="3" y="1.3em" style="font-family: Arial, sans-serif; font-size: 10px; fill: black; font-weight: normal;">184813</tspan></text><text text-anchor="middle" dominant-baseline="text-before-edge" transform="translate(788.752438624823,134.30872464044225)"><tspan x="3" y="0.2em" style="font-family: Arial, sans-serif; font-size: 10px; fill: black; font-weight: bold;">Hepatitis B</tspan><tspan x="3" y="1.3em" style="font-family: Arial, sans-serif; font-size: 10px; fill: black; font-weight: normal;">19399557</tspan></text><text text-anchor="middle" dominant-baseline="text-before-edge" transform="translate(938.0596676033972,69.19416832257728)"><tspan x="3" y="0.2em" style="font-family: Arial, sans-serif; font-size: 10px; fill: black; font-weight: bold;">Syphilis</tspan><tspan x="3" y="1.3em" style="font-family: Arial, sans-serif; font-size: 10px; fill: black; font-weight: normal;">7424078</tspan></text><text text-anchor="middle" dominant-baseline="text-before-edge" transform="translate(920.1328896811694,255.37696678666094)"><tspan x="3" y="0.2em" style="font-family: Arial, sans-serif; font-size: 10px; fill: black; font-weight: bold;">Hepatitis C</tspan><tspan x="3" y="1.3em" style="font-family: Arial, sans-serif; font-size: 10px; fill: black; font-weight: normal;">3428095</tspan></text><text text-anchor="middle" dominant-baseline="text-before-edge" transform="translate(970.3830152697542,203.1343569842486)"><tspan x="3" y="0.2em" style="font-family: Arial, sans-serif; font-size: 10px; fill: black; font-weight: bold;">Gonorrhea</tspan><tspan x="3" y="1.3em" style="font-family: Arial, sans-serif; font-size: 10px; fill: black; font-weight: normal;">1811908</tspan></text><text text-anchor="middle" dominant-baseline="text-before-edge" transform="translate(721.729028287489,272.6919763972278)"><tspan x="3" y="0.2em" style="font-family: Arial, sans-serif; font-size: 10px; fill: black; font-weight: bold;">AIDS</tspan><tspan x="3" y="1.3em" style="font-family: Arial, sans-serif; font-size: 10px; fill: black; font-weight: normal;">791685</tspan></text><text text-anchor="middle" dominant-baseline="text-before-edge" transform="translate(105.14898318394609,163.57984273990525)"><tspan x="3" y="0.2em" style="font-family: Arial, sans-serif; font-size: 10px; fill: black; font-weight: bold;">Tuberculosis</tspan><tspan x="3" y="1.3em" style="font-family: Arial, sans-serif; font-size: 10px; fill: black; font-weight: normal;">18355704</tspan></text><text text-anchor="middle" dominant-baseline="text-before-edge" transform="translate(169.22455854915555,27.986477097233333)"><tspan x="3" y="0.2em" style="font-family: Arial, sans-serif; font-size: 10px; fill: black; font-weight: bold;">Mumps</tspan><tspan x="3" y="1.3em" style="font-family: Arial, sans-serif; font-size: 10px; fill: black; font-weight: normal;">4004593</tspan></text><text text-anchor="middle" dominant-baseline="text-before-edge" transform="translate(26.567438014259668,9.659463460573015)"><tspan x="3" y="0.2em" style="font-family: Arial, sans-serif; font-size: 10px; fill: black; font-weight: bold;">Scarlet fever</tspan><tspan x="3" y="1.3em" style="font-family: Arial, sans-serif; font-size: 10px; fill: black; font-weight: normal;">731539</tspan></text><text text-anchor="middle" dominant-baseline="text-before-edge" transform="translate(11.904165904393547,40.022089501733824)"><tspan x="3" y="0.2em" style="font-family: Arial, sans-serif; font-size: 10px; fill: black; font-weight: bold;">Rubella</tspan><tspan x="3" y="1.3em" style="font-family: Arial, sans-serif; font-size: 10px; fill: black; font-weight: normal;">440925</tspan></text><text text-anchor="middle" dominant-baseline="text-before-edge" transform="translate(63.42087867471527,5.1864914029824085)"><tspan x="3" y="0.2em" style="font-family: Arial, sans-serif; font-size: 10px; fill: black; font-weight: bold;">Pertussis</tspan><tspan x="3" y="1.3em" style="font-family: Arial, sans-serif; font-size: 10px; fill: black; font-weight: normal;">184439</tspan></text><text text-anchor="middle" dominant-baseline="text-before-edge" transform="translate(226.65501417670794,262.62898148801577)"><tspan x="3" y="0.2em" style="font-family: Arial, sans-serif; font-size: 10px; fill: black; font-weight: bold;">Brucellosis</tspan><tspan x="3" y="1.3em" style="font-family: Arial, sans-serif; font-size: 10px; fill: black; font-weight: normal;">804912</tspan></text><text text-anchor="middle" dominant-baseline="text-before-edge" transform="translate(188.5376204240782,261.75832515057476)"><tspan x="3" y="0.2em" style="font-family: Arial, sans-serif; font-size: 10px; fill: black; font-weight: bold;">HFRS</tspan><tspan x="3" y="1.3em" style="font-family: Arial, sans-serif; font-size: 10px; fill: black; font-weight: normal;">162950</tspan></text><text text-anchor="middle" dominant-baseline="text-before-edge" transform="translate(164.69392931729104,278.84057693132996)"><tspan x="3" y="0.2em" style="font-family: Arial, sans-serif; font-size: 10px; fill: black; font-weight: bold;">Dengue fever</tspan><tspan x="3" y="1.3em" style="font-family: Arial, sans-serif; font-size: 10px; fill: black; font-weight: normal;">113875</tspan></text><text text-anchor="middle" dominant-baseline="text-before-edge" transform="translate(196.98683900413758,281.8234677873508)"><tspan x="3" y="0.2em" style="font-family: Arial, sans-serif; font-size: 10px; fill: black; font-weight: bold;">Malaria</tspan><tspan x="3" y="1.3em" style="font-family: Arial, sans-serif; font-size: 10px; fill: black; font-weight: normal;">83925</tspan></text><text text-anchor="middle" dominant-baseline="text-before-edge" transform="translate(180.17018742363288,281.0376208060938)"><tspan x="3" y="0.2em" style="font-family: Arial, sans-serif; font-size: 10px; fill: black; font-weight: bold;">Echinococcosis</tspan><tspan x="3" y="1.3em" style="font-family: Arial, sans-serif; font-size: 10px; fill: black; font-weight: normal;">66078</tspan></text><text text-anchor="middle" dominant-baseline="text-before-edge" transform="translate(226.6751657365206,226.6264395381529)"><tspan x="3" y="0.2em" style="font-family: Arial, sans-serif; font-size: 10px; fill: black; font-weight: bold;">Typhus</tspan><tspan x="3" y="1.3em" style="font-family: Arial, sans-serif; font-size: 10px; fill: black; font-weight: normal;">27128</tspan></text><text text-anchor="middle" dominant-baseline="text-before-edge" transform="translate(148.30384887269233,285.66401688801375)"><tspan x="3" y="0.2em" style="font-family: Arial, sans-serif; font-size: 10px; fill: black; font-weight: bold;">JE</tspan><tspan x="3" y="1.3em" style="font-family: Arial, sans-serif; font-size: 10px; fill: black; font-weight: normal;">24203</tspan></text></g></g></svg>